<svg version="1.1" id="Capa_1" xmlns="http://www.w3.org/2000/svg" xmlns:xlink="http://www.w3.org/1999/xlink" x="0px" y="0px"
	 viewBox="0 0 463.86 463.86" style="enable-background:new 0 0 463.86 463.86;" xml:space="preserve">
<g>
	<path fill="#fff" d="M461.85,412.537l-68.568-118.764c-16.492-28.567-45.626-45.98-78.389-47.037c15.601-28.955,15.136-63.001-1.405-91.649
		L244.92,36.323c-2.68-4.641-7.632-7.5-12.991-7.5s-10.311,2.859-12.99,7.5l-68.568,118.764
		c-16.54,28.648-17.006,62.695-1.405,91.649c-32.762,1.057-61.896,18.47-78.389,47.037L2.01,412.537c-2.68,4.641-2.68,10.359,0,15
		c2.679,4.641,7.631,7.5,12.99,7.5h137.136c32.902,0,62.479-16.442,79.794-44.158c17.315,27.716,46.892,44.158,79.794,44.158H448.86
		c5.359,0,10.311-2.859,12.99-7.5S464.53,417.178,461.85,412.537z M176.352,170.087l55.578-96.264l55.579,96.264
		c11.6,20.092,11.6,44.083,0,64.175c-11.601,20.092-32.378,32.088-55.579,32.088s-43.977-11.996-55.578-32.088
		C164.752,214.17,164.752,190.179,176.352,170.087z M207.714,372.949c-11.6,20.092-32.377,32.088-55.578,32.088H40.98l55.578-96.264
		c11.601-20.092,32.377-32.088,55.578-32.088c23.201,0,43.978,11.996,55.578,32.088
		C219.314,328.865,219.314,352.856,207.714,372.949z M311.724,405.037c-23.201,0-43.979-11.996-55.578-32.088
		c-11.601-20.093-11.601-44.083,0-64.176s32.377-32.088,55.577-32.088c23.201,0,43.978,11.996,55.578,32.088l55.578,96.264H311.724z
		"/>
	<path fill="#fff" d="M152.136,302.233c-21.3,0-38.628,17.329-38.628,38.628s17.329,38.628,38.628,38.628c21.299,0,38.628-17.329,38.628-38.628
		S173.436,302.233,152.136,302.233z M152.136,349.489c-4.758,0-8.628-3.871-8.628-8.628s3.871-8.628,8.628-8.628
		c4.757,0,8.628,3.871,8.628,8.628S156.894,349.489,152.136,349.489z"/>
	<path fill="#fff" d="M311.724,302.233c-21.3,0-38.628,17.329-38.628,38.628s17.328,38.628,38.628,38.628s38.628-17.329,38.628-38.628
		S333.024,302.233,311.724,302.233z M311.724,349.489c-4.758,0-8.628-3.871-8.628-8.628s3.87-8.628,8.628-8.628
		s8.628,3.871,8.628,8.628S316.482,349.489,311.724,349.489z"/>
	<path fill="#fff" d="M231.929,240.802c21.299,0,38.628-17.329,38.628-38.628s-17.329-38.628-38.628-38.628s-38.628,17.329-38.628,38.628
		S210.63,240.802,231.929,240.802z M231.929,193.546c4.757,0,8.628,3.871,8.628,8.628s-3.871,8.628-8.628,8.628
		s-8.628-3.871-8.628-8.628S227.172,193.546,231.929,193.546z"/>
</g>
</svg>
